<svg
					width="305"
					height="305"
					viewBox="0 0 305 305"
					fill="none"
					xmlns="http://www.w3.org/2000/svg"
				>
					<circle cx="152.879" cy="152.378" r="151" stroke="currentColor" strokeWidth="2" />
					<path
						d="M174.583 32.8047L176.366 28.4861L181.128 30.4518L179.345 34.7704L181.016 35.4602L185.107 25.5512L183.435 24.8614L181.738 28.9729L176.976 27.0072L178.673 22.8956L177.002 22.2058L172.912 32.1148L174.583 32.8047Z"
						fill="currentColor"
					/>
					<path
						d="M184.895 37.0613L188.985 27.1523L187.314 26.4624L183.224 36.3715L184.895 37.0613Z"
						fill="currentColor"
					/>
					<path
						d="M188.78 38.665L190.368 34.8197L191.58 35.3203C192.512 35.7049 192.917 36.1491 193.012 36.9672L193.513 40.6185L195.436 41.4121L194.928 37.8618C194.829 37.0941 194.583 36.5596 194.064 36.1379C195.69 36.6014 197.232 36.0954 197.916 34.4389C198.758 32.398 197.677 30.74 195.666 29.9098L191.199 28.0661L187.109 37.9752L188.78 38.665ZM194.893 31.3216C195.943 31.755 196.686 32.5119 196.167 33.7691C195.673 34.967 194.612 34.9792 193.562 34.5457L190.929 33.4591L192.26 30.2349L194.893 31.3216Z"
						fill="currentColor"
					/>
					<path
						d="M203.45 44.7201L204.06 43.2411L198.721 41.0373L199.893 38.1977L204.315 40.023L204.926 38.5441L200.504 36.7187L201.59 34.0862L206.929 36.29L207.54 34.811L200.53 31.9174L196.439 41.8264L203.45 44.7201Z"
						fill="currentColor"
					/>
					<path
						d="M211.806 48.3425C214.513 49.4597 216.337 48.6032 217.577 45.6009L219.921 39.9217L218.265 39.2379L215.914 44.9319C215.102 46.899 214.137 47.4351 212.48 46.7514C210.853 46.0798 210.518 45.0065 211.329 43.0395L213.68 37.3455L212.023 36.6617L209.679 42.3409C208.44 45.3432 209.159 47.2498 211.806 48.3425Z"
						fill="currentColor"
					/>
					<path
						d="M221.46 52.3272C223.471 53.1575 225.407 52.7449 226.145 50.9553C226.927 49.0623 225.763 47.8551 224.34 46.8173L223.34 46.0932C222.371 45.3814 221.819 44.79 222.179 43.9174C222.49 43.1631 223.354 43.0003 224.3 43.391C225.513 43.8916 226.358 44.8635 226.398 46.3169L228.15 45.6379C228.002 43.9842 226.864 42.6317 225.045 41.8808C223.181 41.1116 221.154 41.4519 220.385 43.3154C219.609 45.1936 220.841 46.4462 222.124 47.3219L222.97 47.9136C224.141 48.7257 224.829 49.3215 224.432 50.2829C224.06 51.185 223.115 51.2103 222.124 50.8013C220.911 50.3007 219.65 49.1221 219.715 47.453L218.038 48.1626C218.117 50.1512 219.566 51.5458 221.46 52.3272Z"
						fill="currentColor"
					/>
					<path
						d="M79.9599 262.043L81.7425 257.725L86.5048 259.69L84.7222 264.009L86.3934 264.699L90.4836 254.79L88.8124 254.1L87.1152 258.212L82.353 256.246L84.0501 252.134L82.3789 251.444L78.2887 261.353L79.9599 262.043Z"
						fill="currentColor"
					/>
					<path
						d="M90.2722 266.3L94.3624 256.391L92.6912 255.701L88.601 265.61L90.2722 266.3Z"
						fill="currentColor"
					/>
					<path
						d="M94.1573 267.904L95.7446 264.058L96.9573 264.559C97.8891 264.944 98.2942 265.388 98.3893 266.206L98.89 269.857L100.813 270.651L100.305 267.1C100.206 266.333 99.9596 265.798 99.4413 265.377C101.067 265.84 102.609 265.334 103.293 263.678C104.135 261.637 103.054 259.979 101.043 259.148L96.5763 257.305L92.4861 267.214L94.1573 267.904ZM100.27 260.56C101.32 260.994 102.063 261.751 101.544 263.008C101.05 264.206 99.9888 264.218 98.9388 263.784L96.3062 262.698L97.6371 259.474L100.27 260.56Z"
						fill="currentColor"
					/>
					<path
						d="M108.827 273.959L109.437 272.48L104.098 270.276L105.27 267.436L109.692 269.262L110.303 267.783L105.881 265.957L106.967 263.325L112.306 265.529L112.917 264.05L105.906 261.156L101.816 271.065L108.827 273.959Z"
						fill="currentColor"
					/>
					<path
						d="M117.183 277.581C119.89 278.698 121.714 277.842 122.954 274.84L125.298 269.16L123.641 268.477L121.291 274.171C120.479 276.138 119.514 276.674 117.857 275.99C116.23 275.318 115.894 274.245 116.706 272.278L119.057 266.584L117.4 265.9L115.056 271.58C113.817 274.582 114.536 276.488 117.183 277.581Z"
						fill="currentColor"
					/>
					<path
						d="M126.837 281.566C128.848 282.396 130.784 281.984 131.522 280.194C132.304 278.301 131.14 277.094 129.717 276.056L128.717 275.332C127.748 274.62 127.195 274.029 127.556 273.156C127.867 272.402 128.73 272.239 129.677 272.63C130.89 273.13 131.735 274.102 131.775 275.556L133.527 274.877C133.379 273.223 132.241 271.87 130.422 271.119C128.558 270.35 126.531 270.691 125.762 272.554C124.986 274.432 126.218 275.685 127.501 276.561L128.347 277.152C129.517 277.964 130.206 278.56 129.809 279.522C129.437 280.424 128.492 280.449 127.501 280.04C126.288 279.539 125.026 278.361 125.092 276.692L123.415 277.401C123.494 279.39 124.943 280.784 126.837 281.566Z"
						fill="currentColor"
					/>
					<path
						d="M32.4577 131.014L28.1392 129.231L30.1049 124.469L34.4235 126.252L35.1133 124.58L25.2043 120.49L24.5145 122.161L28.626 123.858L26.6602 128.621L22.5487 126.924L21.8589 128.595L31.7679 132.685L32.4577 131.014Z"
						fill="currentColor"
					/>
					<path
						d="M36.7144 120.702L26.8054 116.611L26.1155 118.283L36.0245 122.373L36.7144 120.702Z"
						fill="currentColor"
					/>
					<path
						d="M38.3181 116.816L34.4728 115.229L34.9734 114.016C35.358 113.085 35.8022 112.679 36.6203 112.584L40.2716 112.084L41.0652 110.161L37.5149 110.669C36.7472 110.767 36.2126 111.014 35.791 111.532C36.2545 109.906 35.7485 108.365 34.092 107.681C32.0511 106.838 30.3931 107.92 29.5629 109.931L27.7192 114.397L37.6282 118.488L38.3181 116.816ZM30.9747 110.704C31.4081 109.654 32.165 108.911 33.4221 109.43C34.6201 109.924 34.6322 110.985 34.1988 112.035L33.1121 114.667L29.888 113.337L30.9747 110.704Z"
						fill="currentColor"
					/>
					<path
						d="M44.3731 102.147L42.8942 101.537L40.6904 106.876L37.8508 105.704L39.6761 101.282L38.1971 100.671L36.3718 105.093L33.7393 104.007L35.9431 98.6675L34.4641 98.057L31.5705 105.067L41.4795 109.157L44.3731 102.147Z"
						fill="currentColor"
					/>
					<path
						d="M47.9956 93.7906C49.1128 91.0841 48.2562 89.2593 45.254 88.02L39.5748 85.6758L38.891 87.3322L44.585 89.6826C46.552 90.4945 47.0882 91.4601 46.4044 93.1165C45.7329 94.7434 44.6596 95.0793 42.6925 94.2673L36.9985 91.917L36.3148 93.5734L41.994 95.9177C44.9963 97.1569 46.9028 96.438 47.9956 93.7906Z"
						fill="currentColor"
					/>
					<path
						d="M51.9803 84.1372C52.8105 82.1258 52.398 80.1899 50.6084 79.4513C48.7153 78.6699 47.5081 79.8333 46.4704 81.257L45.7463 82.2564C45.0345 83.2261 44.4431 83.7782 43.5705 83.418C42.8162 83.1067 42.6533 82.2432 43.044 81.2967C43.5446 80.084 44.5166 79.2389 45.97 79.1984L45.291 77.4468C43.6373 77.595 42.2848 78.7331 41.5339 80.5522C40.7647 82.4157 41.1049 84.4429 42.9684 85.2121C44.8467 85.9874 46.0992 84.7561 46.975 83.4732L47.5666 82.6269C48.3788 81.4562 48.9746 80.7675 49.9359 81.1643C50.8381 81.5367 50.8634 82.4818 50.4544 83.4727C49.9538 84.6855 48.7752 85.9472 47.1061 85.8814L47.8156 87.559C49.8043 87.4798 51.1989 86.0303 51.9803 84.1372Z"
						fill="currentColor"
					/>
					<path
						d="M261.696 225.638L257.377 223.855L259.343 219.093L263.662 220.875L264.352 219.204L254.443 215.114L253.753 216.785L257.864 218.482L255.899 223.245L251.787 221.547L251.097 223.219L261.006 227.309L261.696 225.638Z"
						fill="currentColor"
					/>
					<path
						d="M265.953 215.325L256.044 211.235L255.354 212.906L265.263 216.997L265.953 215.325Z"
						fill="currentColor"
					/>
					<path
						d="M267.556 211.44L263.711 209.853L264.212 208.64C264.596 207.708 265.04 207.303 265.859 207.208L269.51 206.707L270.303 204.785L266.753 205.293C265.985 205.391 265.451 205.638 265.029 206.156C265.493 204.53 264.987 202.988 263.33 202.305C261.289 201.462 259.631 202.543 258.801 204.555L256.958 209.021L266.867 213.111L267.556 211.44ZM260.213 205.328C260.646 204.278 261.403 203.534 262.66 204.053C263.858 204.548 263.871 205.609 263.437 206.659L262.35 209.291L259.126 207.96L260.213 205.328Z"
						fill="currentColor"
					/>
					<path
						d="M273.611 196.771L272.132 196.16L269.929 201.5L267.089 200.327L268.914 195.905L267.435 195.295L265.61 199.717L262.978 198.63L265.181 193.291L263.702 192.681L260.809 199.691L270.718 203.781L273.611 196.771Z"
						fill="currentColor"
					/>
					<path
						d="M277.234 188.414C278.351 185.708 277.495 183.883 274.492 182.644L268.813 180.3L268.129 181.956L273.823 184.306C275.79 185.118 276.326 186.084 275.643 187.74C274.971 189.367 273.898 189.703 271.931 188.891L266.237 186.541L265.553 188.197L271.232 190.541C274.235 191.781 276.141 191.062 277.234 188.414Z"
						fill="currentColor"
					/>
					<path
						d="M281.219 178.761C282.049 176.75 281.636 174.814 279.847 174.075C277.954 173.294 276.746 174.457 275.709 175.881L274.985 176.88C274.273 177.85 273.681 178.402 272.809 178.042C272.054 177.73 271.892 176.867 272.282 175.92C272.783 174.708 273.755 173.863 275.208 173.822L274.529 172.071C272.876 172.219 271.523 173.357 270.772 175.176C270.003 177.039 270.343 179.067 272.207 179.836C274.085 180.611 275.338 179.38 276.213 178.097L276.805 177.251C277.617 176.08 278.213 175.391 279.174 175.788C280.076 176.16 280.102 177.106 279.693 178.096C279.192 179.309 278.013 180.571 276.344 180.505L277.054 182.183C279.043 182.104 280.437 180.654 281.219 178.761Z"
						fill="currentColor"
					/>
					<path
						d="M252.454 83.1049L256.768 81.3117L258.746 86.0691L254.431 87.8623L255.125 89.5318L265.024 85.4173L264.33 83.7478L260.223 85.455L258.246 80.6976L262.353 78.9904L261.659 77.3209L251.76 81.4354L252.454 83.1049Z"
						fill="currentColor"
					/>
					<path
						d="M256.736 93.4067L266.635 89.2922L265.941 87.6226L256.042 91.7372L256.736 93.4067Z"
						fill="currentColor"
					/>
					<path
						d="M258.349 97.2879L262.191 95.6912L262.694 96.9027C263.081 97.8335 263.053 98.4341 262.542 99.0798L260.314 102.016L261.113 103.936L263.264 101.067C263.737 100.454 263.941 99.9019 263.872 99.2373C264.695 100.715 266.143 101.447 267.797 100.759C269.836 99.912 270.244 97.9751 269.409 95.9657L267.554 91.5038L257.655 95.6184L258.349 97.2879ZM267.864 96.4173C268.3 97.4663 268.29 98.5272 267.034 99.0492C265.838 99.5467 265.079 98.8051 264.643 97.7561L263.55 95.1262L266.771 93.7875L267.864 96.4173Z"
						fill="currentColor"
					/>
					<path
						d="M264.44 111.942L265.918 111.328L263.701 105.994L266.538 104.815L268.374 109.233L269.851 108.619L268.015 104.201L270.645 103.108L272.862 108.442L274.339 107.828L271.428 100.824L261.529 104.939L264.44 111.942Z"
						fill="currentColor"
					/>
					<path
						d="M267.788 120.413C268.912 123.116 270.808 123.801 273.807 122.554L279.48 120.196L278.793 118.541L273.104 120.906C271.139 121.723 270.077 121.419 269.39 119.764C268.714 118.139 269.236 117.142 271.201 116.326L276.889 113.961L276.201 112.307L270.528 114.665C267.528 115.911 266.689 117.768 267.788 120.413Z"
						fill="currentColor"
					/>
					<path
						d="M271.796 130.056C272.631 132.066 274.292 133.143 276.08 132.4C277.971 131.614 278.002 129.937 277.729 128.197L277.534 126.978C277.352 125.789 277.38 124.98 278.251 124.618C279.005 124.305 279.731 124.8 280.124 125.746C280.627 126.957 280.538 128.242 279.538 129.299L281.257 130.057C282.322 128.783 282.473 127.022 281.718 125.204C280.944 123.343 279.27 122.15 277.409 122.924C275.532 123.704 275.517 125.46 275.805 126.986L275.985 128.003C276.239 129.405 276.304 130.314 275.344 130.713C274.443 131.087 273.757 130.437 273.345 129.447C272.842 128.236 272.783 126.51 274.01 125.376L272.322 124.692C270.971 126.154 271.01 128.165 271.796 130.056Z"
						fill="currentColor"
					/>
					<path
						d="M23.4481 178.292L27.7623 176.499L29.7397 181.256L25.4256 183.049L26.1195 184.719L36.0185 180.604L35.3245 178.935L31.2172 180.642L29.2398 175.885L33.3471 174.177L32.6531 172.508L22.7542 176.622L23.4481 178.292Z"
						fill="currentColor"
					/>
					<path
						d="M27.7301 188.594L37.6291 184.479L36.9351 182.81L27.0362 186.924L27.7301 188.594Z"
						fill="currentColor"
					/>
					<path
						d="M29.3434 192.475L33.1847 190.878L33.6883 192.09C34.0752 193.021 34.0476 193.621 33.5363 194.267L31.3085 197.203L32.1069 199.123L34.2583 196.254C34.7314 195.641 34.935 195.089 34.8666 194.424C35.6887 195.902 37.1367 196.634 38.7915 195.946C40.8303 195.099 41.2382 193.162 40.403 191.153L38.5484 186.691L28.6494 190.805L29.3434 192.475ZM38.858 191.604C39.294 192.653 39.2845 193.714 38.0286 194.236C36.8319 194.734 36.0731 193.992 35.6371 192.943L34.544 190.313L37.7649 188.974L38.858 191.604Z"
						fill="currentColor"
					/>
					<path
						d="M35.4345 207.129L36.9119 206.515L34.695 201.181L37.5317 200.002L39.3679 204.42L40.8453 203.806L39.0092 199.388L41.639 198.295L43.856 203.629L45.3334 203.015L42.4225 196.012L32.5236 200.126L35.4345 207.129Z"
						fill="currentColor"
					/>
					<path
						d="M38.782 215.6C39.9058 218.303 41.8018 218.988 44.8011 217.741L50.4745 215.383L49.7867 213.728L44.0985 216.093C42.1335 216.91 41.0716 216.606 40.3838 214.951C39.7082 213.326 40.2297 212.329 42.1947 211.513L47.8829 209.148L47.1951 207.494L41.5217 209.852C38.5225 211.098 37.6827 212.955 38.782 215.6Z"
						fill="currentColor"
					/>
					<path
						d="M42.7904 225.243C43.6256 227.253 45.2862 228.33 47.0739 227.587C48.965 226.801 48.996 225.124 48.7231 223.384L48.5284 222.165C48.3461 220.976 48.3738 220.167 49.2455 219.805C49.999 219.492 50.7248 219.987 51.1178 220.933C51.6214 222.144 51.5316 223.429 50.5326 224.486L52.2513 225.244C53.3158 223.97 53.4675 222.209 52.7121 220.391C51.9383 218.53 50.2643 217.337 48.4027 218.111C46.5263 218.891 46.5113 220.647 46.7992 222.173L46.9792 223.19C47.2328 224.592 47.2985 225.501 46.3381 225.9C45.4369 226.274 44.7507 225.624 44.3392 224.634C43.8356 223.423 43.7768 221.697 45.0037 220.563L43.3156 219.879C41.9654 221.341 42.0043 223.352 42.7904 225.243Z"
						fill="currentColor"
					/>
					<path
						d="M83.1053 52.3015L81.3121 47.9873L86.0695 46.0099L87.8627 50.3241L89.5322 49.6301L85.4177 39.7312L83.7481 40.4251L85.4554 44.5324L80.698 46.5099L78.9907 42.4026L77.3212 43.0965L81.4357 52.9954L83.1053 52.3015Z"
						fill="currentColor"
					/>
					<path
						d="M93.407 48.0195L89.2925 38.1206L87.623 38.8145L91.7375 48.7135L93.407 48.0195Z"
						fill="currentColor"
					/>
					<path
						d="M97.2882 46.4063L95.6916 42.5649L96.9031 42.0613C97.8339 41.6744 98.4345 41.702 99.0802 42.2134L102.016 44.4411L103.937 43.6428L101.067 41.4914C100.455 41.0182 99.9023 40.8147 99.2376 40.883C100.715 40.0609 101.448 38.6129 100.76 36.9582C99.9123 34.9193 97.9754 34.5115 95.9661 35.3467L91.5042 37.2013L95.6187 47.1002L97.2882 46.4063ZM96.4177 36.8917C97.4667 36.4557 98.5276 36.4652 99.0496 37.721C99.547 38.9178 98.8054 39.6765 97.7564 40.1125L95.1266 41.2056L93.7878 37.9848L96.4177 36.8917Z"
						fill="currentColor"
					/>
					<path
						d="M111.943 40.3152L111.328 38.8377L105.995 41.0547L104.816 38.2179L109.233 36.3818L108.619 34.9043L104.202 36.7405L103.108 34.1106L108.442 31.8937L107.828 30.4162L100.825 33.3271L104.939 43.2261L111.943 40.3152Z"
						fill="currentColor"
					/>
					<path
						d="M120.413 36.9677C123.117 35.8438 123.801 33.9478 122.555 30.9486L120.197 25.2752L118.542 25.963L120.906 31.6512C121.723 33.6162 121.419 34.6781 119.764 35.3659C118.139 36.0414 117.143 35.5199 116.326 33.5549L113.962 27.8667L112.307 28.5545L114.665 34.2279C115.912 37.2272 117.768 38.0669 120.413 36.9677Z"
						fill="currentColor"
					/>
					<path
						d="M130.057 32.9593C132.066 32.1241 133.143 30.4635 132.4 28.6757C131.614 26.7846 129.938 26.7536 128.197 27.0266L126.978 27.2212C125.789 27.4036 124.981 27.3758 124.618 26.5041C124.305 25.7506 124.801 25.0249 125.746 24.6318C126.958 24.1283 128.243 24.218 129.299 25.2171L130.057 23.4983C128.783 22.4338 127.022 22.2822 125.205 23.0375C123.343 23.8113 122.15 25.4854 122.924 27.3469C123.704 29.2233 125.46 29.2384 126.987 28.9505L128.004 28.7704C129.406 28.5168 130.314 28.4512 130.713 29.4115C131.088 30.3128 130.437 30.999 129.447 31.4104C128.236 31.914 126.51 31.9728 125.377 30.746L124.692 32.434C126.154 33.7842 128.165 33.7453 130.057 32.9593Z"
						fill="currentColor"
					/>
					<path
						d="M178.293 281.307L176.5 276.993L181.257 275.015L183.05 279.329L184.72 278.635L180.605 268.736L178.936 269.43L180.643 273.538L175.885 275.515L174.178 271.408L172.509 272.102L176.623 282.001L178.293 281.307Z"
						fill="currentColor"
					/>
					<path
						d="M188.595 277.025L184.48 267.126L182.81 267.82L186.925 277.719L188.595 277.025Z"
						fill="currentColor"
					/>
					<path
						d="M192.476 275.412L190.879 271.57L192.091 271.067C193.021 270.68 193.622 270.707 194.268 271.219L197.204 273.446L199.124 272.648L196.255 270.497C195.642 270.023 195.09 269.82 194.425 269.888C195.903 269.066 196.635 267.618 195.947 265.963C195.1 263.925 193.163 263.517 191.154 264.352L186.692 266.207L190.806 276.105L192.476 275.412ZM191.605 265.897C192.654 265.461 193.715 265.47 194.237 266.726C194.735 267.923 193.993 268.682 192.944 269.118L190.314 270.211L188.975 266.99L191.605 265.897Z"
						fill="currentColor"
					/>
					<path
						d="M207.13 269.32L206.516 267.843L201.182 270.06L200.003 267.223L204.421 265.387L203.807 263.91L199.389 265.746L198.296 263.116L203.63 260.899L203.015 259.421L196.012 262.332L200.127 272.231L207.13 269.32Z"
						fill="currentColor"
					/>
					<path
						d="M215.6 265.973C218.304 264.849 218.989 262.953 217.742 259.954L215.384 254.28L213.729 254.968L216.094 260.656C216.91 262.621 216.607 263.683 214.952 264.371C213.327 265.047 212.33 264.525 211.514 262.56L209.149 256.872L207.494 257.56L209.853 263.233C211.099 266.232 212.956 267.072 215.6 265.973Z"
						fill="currentColor"
					/>
					<path
						d="M225.244 261.965C227.253 261.129 228.331 259.469 227.587 257.681C226.801 255.79 225.125 255.759 223.385 256.032L222.166 256.226C220.977 256.409 220.168 256.381 219.806 255.509C219.493 254.756 219.988 254.03 220.934 253.637C222.145 253.134 223.43 253.223 224.486 254.222L225.245 252.504C223.971 251.439 222.21 251.287 220.392 252.043C218.531 252.817 217.338 254.491 218.112 256.352C218.892 258.229 220.648 258.244 222.174 257.956L223.191 257.776C224.593 257.522 225.501 257.456 225.901 258.417C226.275 259.318 225.625 260.004 224.635 260.416C223.423 260.919 221.698 260.978 220.564 259.751L219.88 261.439C221.342 262.789 223.353 262.751 225.244 261.965Z"
						fill="currentColor"
					/>
					<path
						d="M207.879 152.378C207.879 182.754 183.254 207.378 152.879 207.378C122.503 207.378 97.8787 182.754 97.8787 152.378C97.8787 122.002 122.503 97.3779 152.879 97.3779C183.254 97.3779 207.879 122.002 207.879 152.378Z"
						fill="var(--color-primary)"
					/>
					<rect x="134.412" y="131" width="38" height="4" fill="var(--color-revert-text)" />
					<path d="M174.412 131V171H170.412V131H174.412Z" fill="var(--color-revert-text)" />
					<rect
						x="133"
						y="169.482"
						width="51.5935"
						height="4"
						transform="rotate(-45 133 169.482)"
						fill="var(--color-revert-text)"
					/>
				</svg>