<svg width="183" height="87" viewBox="0 0 183 87" fill="none" xmlns="http://www.w3.org/2000/svg">
<path d="M105.314 28.2988L102.35 28.7618L105.314 28.2988ZM180.657 57.3977C182.114 58.1864 182.656 60.007 181.867 61.4641L169.014 85.2084C168.225 86.6655 166.404 87.2073 164.947 86.4186C163.49 85.6298 162.949 83.8092 163.737 82.3522L175.162 61.2461L154.056 49.821C152.599 49.0323 152.057 47.2117 152.846 45.7546C153.635 44.2975 155.455 43.7557 156.912 44.5445L180.657 57.3977ZM5.80787 17.2512C16.5996 48.7775 43.5854 66.0302 66.424 68.0346C77.8366 69.0362 87.8863 66.2184 94.4822 59.9134C100.997 53.6857 104.661 43.5556 102.35 28.7618L108.278 27.8358C110.812 44.0584 106.9 56.3437 98.6281 64.2506C90.4372 72.0803 78.4885 75.1165 65.8994 74.0116C40.7345 71.8031 11.7037 53.0013 0.131242 19.1944L5.80787 17.2512ZM102.35 28.7618C100.73 18.3884 98.1159 12.4279 95.4952 9.43819C94.2248 7.98896 93.0305 7.32297 92.0048 7.07271C90.9872 6.82442 89.8766 6.92143 88.6477 7.44526C86.0764 8.54137 83.2147 11.4383 80.891 15.877C78.6078 20.2383 77.0358 25.7403 76.793 31.4992C76.312 42.9083 81.0054 55.1035 95.5976 61.7255C110.506 68.4912 136.256 69.6942 178.373 57.1606L180.084 62.9113C137.502 75.5836 110.012 74.8561 93.1181 67.1893C75.9071 59.3788 70.2336 44.6395 70.7983 31.2465C71.0784 24.6043 72.8823 18.2384 75.5754 13.0942C78.2279 8.02732 81.9426 3.78112 86.2949 1.92582C88.5279 0.973956 90.9658 0.643182 93.4271 1.24371C95.8802 1.84227 98.0949 3.30167 100.007 5.48311C103.752 9.75472 106.597 17.0765 108.278 27.8358L102.35 28.7618Z" fill="white"/>
</svg>
