<svg width="345" height="346" viewBox="0 0 345 346" fill="none" xmlns="http://www.w3.org/2000/svg">
<circle cx="172.879" cy="173" r="151" stroke="white" stroke-width="2"/>
<path d="M193.573 53.0097L195.355 48.6911L200.118 50.6568L198.335 54.9754L200.006 55.6652L204.097 45.7562L202.425 45.0664L200.728 49.1779L195.966 47.2122L197.663 43.1006L195.992 42.4108L191.902 52.3198L193.573 53.0097ZM203.885 57.2663L207.975 47.3573L206.304 46.6674L202.214 56.5765L203.885 57.2663ZM207.77 58.87L209.358 55.0247L210.57 55.5253C211.502 55.9099 211.907 56.3541 212.002 57.1722L212.503 60.8235L214.426 61.6171L213.918 58.0668C213.819 57.2991 213.573 56.7646 213.054 56.3429C214.68 56.8064 216.222 56.3004 216.906 54.6439C217.748 52.603 216.667 50.945 214.656 50.1148L210.189 48.2711L206.099 58.1802L207.77 58.87ZM213.883 51.5266C214.933 51.96 215.676 52.7169 215.157 53.9741C214.663 55.172 213.602 55.1841 212.552 54.7507L209.919 53.6641L211.25 50.4399L213.883 51.5266ZM222.439 64.9251L223.05 63.4461L217.711 61.2423L218.883 58.4027L223.305 60.228L223.916 58.749L219.493 56.9237L220.58 54.2912L225.919 56.495L226.53 55.016L219.519 52.1224L215.429 62.0314L222.439 64.9251ZM230.796 68.5475C233.502 69.6647 235.327 68.8082 236.567 65.8059L238.911 60.1267L237.254 59.4429L234.904 65.1369C234.092 67.104 233.127 67.6401 231.47 66.9564C229.843 66.2848 229.507 65.2115 230.319 63.2445L232.67 57.5505L231.013 56.8667L228.669 62.5459C227.43 65.5482 228.149 67.4548 230.796 68.5475ZM240.449 72.5322C242.461 73.3625 244.397 72.9499 245.135 71.1603C245.917 69.2673 244.753 68.06 243.33 67.0223L242.33 66.2982C241.361 65.5864 240.808 64.995 241.169 64.1224C241.48 63.3681 242.343 63.2053 243.29 63.596C244.503 64.0965 245.348 65.0685 245.388 66.5219L247.14 65.8429C246.992 64.1892 245.854 62.8367 244.034 62.0858C242.171 61.3166 240.144 61.6569 239.375 63.5203C238.599 65.3986 239.831 66.6512 241.113 67.5269L241.96 68.1186C243.13 68.9307 243.819 69.5265 243.422 70.4879C243.05 71.39 242.105 71.4153 241.114 71.0063C239.901 70.5057 238.639 69.3271 238.705 67.658L237.028 68.3676C237.107 70.3562 238.556 71.7508 240.449 72.5322Z" fill="white"/>
<path d="M98.9498 282.248L100.732 277.93L105.495 279.895L103.712 284.214L105.383 284.904L109.473 274.995L107.802 274.305L106.105 278.417L101.343 276.451L103.04 272.339L101.369 271.649L97.2786 281.558L98.9498 282.248ZM109.262 286.505L113.352 276.596L111.681 275.906L107.591 285.815L109.262 286.505ZM113.147 288.109L114.734 284.263L115.947 284.764C116.879 285.149 117.284 285.593 117.379 286.411L117.88 290.062L119.803 290.856L119.295 287.305C119.196 286.538 118.949 286.003 118.431 285.582C120.057 286.045 121.599 285.539 122.283 283.883C123.125 281.842 122.044 280.184 120.033 279.353L115.566 277.51L111.476 287.419L113.147 288.109ZM119.259 280.765C120.31 281.199 121.053 281.956 120.534 283.213C120.04 284.411 118.979 284.423 117.929 283.989L115.296 282.903L116.627 279.679L119.259 280.765ZM127.816 294.164L128.427 292.685L123.088 290.481L124.26 287.641L128.682 289.467L129.293 287.988L124.87 286.162L125.957 283.53L131.296 285.734L131.907 284.255L124.896 281.361L120.806 291.27L127.816 294.164ZM136.173 297.786C138.879 298.903 140.704 298.047 141.944 295.045L144.288 289.365L142.631 288.682L140.281 294.376C139.469 296.343 138.503 296.879 136.847 296.195C135.22 295.523 134.884 294.45 135.696 292.483L138.047 286.789L136.39 286.105L134.046 291.785C132.807 294.787 133.526 296.693 136.173 297.786ZM145.826 301.771C147.838 302.601 149.774 302.189 150.512 300.399C151.294 298.506 150.13 297.299 148.707 296.261L147.707 295.537C146.737 294.825 146.185 294.234 146.546 293.361C146.857 292.607 147.72 292.444 148.667 292.835C149.88 293.335 150.725 294.307 150.765 295.761L152.517 295.082C152.369 293.428 151.231 292.075 149.411 291.324C147.548 290.555 145.521 290.896 144.752 292.759C143.976 294.637 145.207 295.89 146.49 296.766L147.337 297.357C148.507 298.169 149.196 298.765 148.799 299.727C148.427 300.629 147.482 300.654 146.491 300.245C145.278 299.744 144.016 298.566 144.082 296.897L142.405 297.606C142.484 299.595 143.933 300.989 145.826 301.771Z" fill="white"/>
<path d="M52.388 151.805L48.0694 150.023L50.0351 145.26L54.3537 147.043L55.0435 145.372L45.1345 141.282L44.4447 142.953L48.5562 144.65L46.5904 149.412L42.4789 147.715L41.7891 149.386L51.6981 153.476L52.388 151.805ZM56.6446 141.493L46.7356 137.403L46.0457 139.074L55.9548 143.164L56.6446 141.493ZM58.2483 137.608L54.403 136.021L54.9036 134.808C55.2882 133.876 55.7324 133.471 56.5505 133.376L60.2018 132.875L60.9954 130.952L57.4451 131.46C56.6774 131.559 56.1429 131.806 55.7212 132.324C56.1847 130.698 55.6787 129.156 54.0222 128.472C51.9813 127.63 50.3233 128.711 49.4931 130.722L47.6494 135.189L57.5585 139.279L58.2483 137.608ZM50.9049 131.496C51.3383 130.445 52.0952 129.702 53.3523 130.221C54.5503 130.715 54.5624 131.776 54.129 132.826L53.0424 135.459L49.8182 134.128L50.9049 131.496ZM64.3034 122.939L62.8244 122.328L60.6206 127.667L57.781 126.495L59.6063 122.073L58.1273 121.462L56.302 125.885L53.6695 124.798L55.8733 119.459L54.3943 118.848L51.5007 125.859L61.4097 129.949L64.3034 122.939ZM67.9258 114.582C69.043 111.876 68.1865 110.051 65.1842 108.811L59.505 106.467L58.8212 108.124L64.5152 110.474C66.4822 111.286 67.0184 112.252 66.3346 113.908C65.6631 115.535 64.5898 115.871 62.6228 115.059L56.9288 112.708L56.245 114.365L61.9242 116.709C64.9265 117.948 66.8331 117.229 67.9258 114.582ZM71.9105 104.929C72.7408 102.917 72.3282 100.981 70.5386 100.243C68.6456 99.4613 67.4383 100.625 66.4006 102.048L65.6765 103.048C64.9647 104.018 64.3733 104.57 63.5007 104.209C62.7464 103.898 62.5835 103.035 62.9743 102.088C63.4748 100.875 64.4468 100.03 65.9002 99.9898L65.2212 98.2382C63.5675 98.3864 62.215 99.5245 61.4641 101.344C60.6949 103.207 61.0352 105.234 62.8986 106.003C64.7769 106.779 66.0295 105.548 66.9052 104.265L67.4969 103.418C68.309 102.248 68.9048 101.559 69.8662 101.956C70.7683 102.328 70.7936 103.273 70.3846 104.264C69.884 105.477 68.7054 106.739 67.0363 106.673L67.7458 108.35C69.7345 108.271 71.1291 106.822 71.9105 104.929Z" fill="white"/>
<path d="M281.626 246.429L277.308 244.647L279.273 239.884L283.592 241.667L284.282 239.996L274.373 235.905L273.683 237.577L277.795 239.274L275.829 244.036L271.717 242.339L271.027 244.01L280.936 248.1L281.626 246.429ZM285.883 236.117L275.974 232.027L275.284 233.698L285.193 237.788L285.883 236.117ZM287.487 232.232L283.641 230.644L284.142 229.432C284.527 228.5 284.971 228.095 285.789 228L289.44 227.499L290.234 225.576L286.683 226.084C285.916 226.183 285.381 226.429 284.96 226.948C285.423 225.322 284.917 223.78 283.261 223.096C281.22 222.254 279.562 223.335 278.731 225.346L276.888 229.813L286.797 233.903L287.487 232.232ZM280.143 226.119C280.577 225.069 281.334 224.326 282.591 224.845C283.789 225.339 283.801 226.4 283.367 227.45L282.281 230.083L279.057 228.752L280.143 226.119ZM293.542 217.562L292.063 216.952L289.859 222.291L287.019 221.119L288.845 216.697L287.366 216.086L285.54 220.508L282.908 219.422L285.112 214.083L283.633 213.472L280.739 220.483L290.648 224.573L293.542 217.562ZM297.164 209.206C298.281 206.499 297.425 204.675 294.423 203.435L288.743 201.091L288.06 202.748L293.754 205.098C295.721 205.91 296.257 206.875 295.573 208.532C294.901 210.159 293.828 210.495 291.861 209.683L286.167 207.332L285.483 208.989L291.163 211.333C294.165 212.572 296.071 211.853 297.164 209.206ZM301.149 199.553C301.979 197.541 301.567 195.605 299.777 194.867C297.884 194.085 296.677 195.249 295.639 196.672L294.915 197.672C294.203 198.641 293.612 199.194 292.739 198.833C291.985 198.522 291.822 197.659 292.213 196.712C292.713 195.499 293.685 194.654 295.139 194.614L294.46 192.862C292.806 193.01 291.453 194.148 290.702 195.967C289.933 197.831 290.273 199.858 292.137 200.627C294.015 201.403 295.268 200.171 296.144 198.889L296.735 198.042C297.547 196.872 298.143 196.183 299.105 196.58C300.007 196.952 300.032 197.897 299.623 198.888C299.122 200.101 297.944 201.363 296.275 201.297L296.984 202.974C298.973 202.895 300.367 201.446 301.149 199.553Z" fill="white"/>
<path d="M272.211 103.141L276.525 101.348L278.502 106.105L274.188 107.898L274.882 109.568L284.781 105.453L284.087 103.784L279.98 105.491L278.002 100.734L282.11 99.0264L281.416 97.3569L271.517 101.471L272.211 103.141ZM276.493 113.443L286.392 109.328L285.698 107.659L275.799 111.773L276.493 113.443ZM278.106 117.324L281.947 115.727L282.451 116.939C282.838 117.87 282.81 118.47 282.299 119.116L280.071 122.052L280.869 123.972L283.021 121.103C283.494 120.49 283.698 119.938 283.629 119.273C284.451 120.751 285.899 121.483 287.554 120.795C289.593 119.948 290.001 118.011 289.166 116.002L287.311 111.54L277.412 115.654L278.106 117.324ZM287.621 116.453C288.057 117.502 288.047 118.563 286.791 119.085C285.594 119.583 284.836 118.841 284.4 117.792L283.307 115.162L286.527 113.823L287.621 116.453ZM284.197 131.978L285.674 131.364L283.458 126.03L286.294 124.851L288.13 129.269L289.608 128.655L287.772 124.237L290.402 123.144L292.619 128.478L294.096 127.864L291.185 120.861L281.286 124.975L284.197 131.978ZM287.545 140.449C288.668 143.152 290.564 143.837 293.564 142.59L299.237 140.232L298.549 138.577L292.861 140.942C290.896 141.759 289.834 141.455 289.146 139.8C288.471 138.175 288.992 137.178 290.957 136.362L296.645 133.997L295.958 132.343L290.284 134.701C287.285 135.947 286.445 137.804 287.545 140.449ZM291.553 150.092C292.388 152.102 294.049 153.179 295.836 152.436C297.728 151.65 297.759 149.973 297.486 148.233L297.291 147.014C297.109 145.825 297.136 145.016 298.008 144.654C298.762 144.341 299.487 144.836 299.88 145.782C300.384 146.993 300.294 148.278 299.295 149.335L301.014 150.093C302.078 148.819 302.23 147.058 301.475 145.24C300.701 143.379 299.027 142.186 297.165 142.96C295.289 143.74 295.274 145.496 295.562 147.022L295.742 148.039C295.995 149.441 296.061 150.35 295.101 150.749C294.199 151.123 293.513 150.473 293.102 149.483C292.598 148.272 292.539 146.546 293.766 145.412L292.078 144.728C290.728 146.19 290.767 148.201 291.553 150.092Z" fill="white"/>
<path d="M43.2048 198.328L47.519 196.535L49.4964 201.292L45.1823 203.085L45.8762 204.755L55.7751 200.64L55.0812 198.971L50.9739 200.678L48.9964 195.921L53.1038 194.213L52.4098 192.544L42.5109 196.658L43.2048 198.328ZM47.4868 208.63L57.3857 204.515L56.6918 202.846L46.7929 206.96L47.4868 208.63ZM49.1 212.511L52.9414 210.914L53.445 212.126C53.8319 213.057 53.8043 213.657 53.293 214.303L51.0652 217.239L51.8635 219.159L54.0149 216.29C54.4881 215.677 54.6916 215.125 54.6233 214.46C55.4454 215.938 56.8934 216.67 58.5481 215.982C60.587 215.135 60.9948 213.198 60.1597 211.189L58.305 206.727L48.4061 210.841L49.1 212.511ZM58.6147 211.64C59.0507 212.689 59.0411 213.75 57.7853 214.272C56.5886 214.77 55.8298 214.028 55.3938 212.979L54.3007 210.349L57.5215 209.011L58.6147 211.64ZM55.1912 227.165L56.6686 226.551L54.4517 221.217L57.2884 220.038L59.1246 224.456L60.602 223.842L58.7658 219.424L61.3957 218.331L63.6126 223.665L65.0901 223.051L62.1792 216.048L52.2803 220.162L55.1912 227.165ZM58.5387 235.636C59.6625 238.339 61.5585 239.024 64.5577 237.777L70.2312 235.419L69.5434 233.765L63.8552 236.129C61.8901 236.946 60.8283 236.642 60.1404 234.987C59.4649 233.362 59.9864 232.365 61.9514 231.549L67.6396 229.184L66.9518 227.53L61.2784 229.888C58.2792 231.134 57.4394 232.991 58.5387 235.636ZM62.5471 245.279C63.3823 247.289 65.0429 248.366 66.8306 247.623C68.7217 246.837 68.7527 245.16 68.4798 243.42L68.2851 242.201C68.1028 241.012 68.1305 240.203 69.0022 239.841C69.7557 239.528 70.4815 240.023 70.8745 240.969C71.3781 242.18 71.2883 243.465 70.2893 244.522L72.008 245.28C73.0725 244.006 73.2242 242.245 72.4688 240.427C71.695 238.566 70.021 237.373 68.1594 238.147C66.283 238.927 66.268 240.683 66.5559 242.209L66.7359 243.226C66.9895 244.628 67.0552 245.537 66.0948 245.936C65.1936 246.31 64.5074 245.66 64.0959 244.67C63.5923 243.459 63.5335 241.733 64.7603 240.599L63.0723 239.915C61.7221 241.377 61.761 243.388 62.5471 245.279Z" fill="white"/>
<path d="M102.519 73.1672L100.726 68.8531L105.484 66.8756L107.277 71.1898L108.946 70.4959L104.832 60.5969L103.162 61.2909L104.87 65.3982L100.112 67.3756L98.405 63.2683L96.7354 63.9622L100.85 73.8612L102.519 73.1672ZM112.821 68.8853L108.707 58.9863L107.037 59.6803L111.152 69.5792L112.821 68.8853ZM116.702 67.272L115.106 63.4306L116.317 62.9271C117.248 62.5402 117.849 62.5678 118.494 63.0791L121.43 65.3069L123.351 64.5085L120.481 62.3571C119.869 61.884 119.317 61.6804 118.652 61.7488C120.129 60.9267 120.862 59.4787 120.174 57.8239C119.327 55.7851 117.39 55.3772 115.38 56.2124L110.918 58.067L115.033 67.966L116.702 67.272ZM115.832 57.7574C116.881 57.3214 117.942 57.3309 118.464 58.5868C118.961 59.7835 118.22 60.5423 117.171 60.9783L114.541 62.0714L113.202 58.8505L115.832 57.7574ZM131.357 61.1809L130.743 59.7035L125.409 61.9204L124.23 59.0837L128.648 57.2475L128.033 55.77L123.616 57.6062L122.523 54.9764L127.856 52.7594L127.242 51.282L120.239 54.1929L124.354 64.0918L131.357 61.1809ZM139.827 57.8334C142.531 56.7096 143.216 54.8136 141.969 51.8143L139.611 46.1409L137.956 46.8287L140.32 52.5169C141.137 54.4819 140.833 55.5438 139.179 56.2316C137.553 56.9071 136.557 56.3857 135.74 54.4207L133.376 48.7325L131.721 49.4203L134.079 55.0937C135.326 58.0929 137.183 58.9327 139.827 57.8334ZM149.471 53.825C151.48 52.9898 152.557 51.3292 151.814 49.5415C151.028 47.6503 149.352 47.6194 147.611 47.8923L146.393 48.087C145.204 48.2693 144.395 48.2415 144.033 47.3698C143.719 46.6163 144.215 45.8906 145.16 45.4976C146.372 44.994 147.657 45.0837 148.713 46.0828L149.472 44.3641C148.197 43.2996 146.436 43.1479 144.619 43.9033C142.757 44.6771 141.565 46.3511 142.338 48.2127C143.118 50.0891 144.875 50.1041 146.401 49.8162L147.418 49.6362C148.82 49.3826 149.728 49.3169 150.127 50.2773C150.502 51.1785 149.852 51.8647 148.862 52.2762C147.65 52.7797 145.925 52.8386 144.791 51.6117L144.106 53.2998C145.569 54.6499 147.58 54.6111 149.471 53.825Z" fill="white"/>
<path d="M197.707 302.172L195.914 297.858L200.671 295.881L202.464 300.195L204.134 299.501L200.019 289.602L198.35 290.296L200.057 294.403L195.3 296.381L193.592 292.274L191.923 292.967L196.037 302.866L197.707 302.172ZM208.009 297.891L203.894 287.992L202.225 288.686L206.339 298.584L208.009 297.891ZM211.89 296.277L210.293 292.436L211.505 291.932C212.436 291.545 213.036 291.573 213.682 292.084L216.618 294.312L218.539 293.514L215.669 291.362C215.056 290.889 214.504 290.686 213.839 290.754C215.317 289.932 216.049 288.484 215.362 286.829C214.514 284.79 212.577 284.382 210.568 285.218L206.106 287.072L210.22 296.971L211.89 296.277ZM211.019 286.763C212.068 286.327 213.129 286.336 213.651 287.592C214.149 288.789 213.407 289.547 212.358 289.984L209.728 291.077L208.39 287.856L211.019 286.763ZM226.544 290.186L225.93 288.709L220.597 290.926L219.417 288.089L223.835 286.253L223.221 284.775L218.803 286.611L217.71 283.982L223.044 281.765L222.43 280.287L215.427 283.198L219.541 293.097L226.544 290.186ZM235.015 286.839C237.718 285.715 238.403 283.819 237.156 280.82L234.798 275.146L233.144 275.834L235.508 281.522C236.325 283.487 236.021 284.549 234.366 285.237C232.741 285.912 231.745 285.391 230.928 283.426L228.563 277.738L226.909 278.426L229.267 284.099C230.514 287.098 232.37 287.938 235.015 286.839ZM244.658 282.83C246.668 281.995 247.745 280.334 247.002 278.547C246.216 276.656 244.539 276.625 242.799 276.898L241.58 277.092C240.391 277.275 239.582 277.247 239.22 276.375C238.907 275.622 239.402 274.896 240.348 274.503C241.559 273.999 242.844 274.089 243.901 275.088L244.659 273.369C243.385 272.305 241.624 272.153 239.807 272.909C237.945 273.682 236.752 275.356 237.526 277.218C238.306 279.094 240.062 279.109 241.588 278.821L242.605 278.641C244.007 278.388 244.916 278.322 245.315 279.283C245.689 280.184 245.039 280.87 244.049 281.281C242.838 281.785 241.112 281.844 239.978 280.617L239.294 282.305C240.756 283.655 242.767 283.616 244.658 282.83Z" fill="white"/>
<circle cx="172.879" cy="173" r="55" fill="#F5A3DA"/>
<path d="M153.879 154H191.879M191.879 154V192M191.879 154L153.879 192" stroke="#0E110F" stroke-width="4"/>
</svg>
